# xmcd
#
# Track frame offsets:
#	150
#	18437
#	46350
#	71409
#	99448
#	121703
#	155118
#	170295
#	193059
#	215362
#	247988
#	266157
#	284446
#	304261
#
# Disc length: 4267 seconds
# Revision: 0
# Processed by: cddbd v1.5.2PL0 Copyright (c) Steve Scherf et al.
# Submitted via: dBpowerAMP V12.0
#
DISCID=c510a90e
DTITLE=Tipitina - Taking Care of Business [dBP-LG-F2-FLAC]
DYEAR=2013
DGENRE=Blues
TTITLE0=Hey Pocky Way
TTITLE1=Brickyard Blues
TTITLE2=Louisiana 1927
TTITLE3=Fess Medley: Mardi Gras in New Orleans/Big Chief/Tipitina
TTITLE4=You Know I'm No Good/Tico Tico
TTITLE5=You Are a Blessing
TTITLE6=Rockin' Pneumonia and the Boogie Woogie Flu
TTITLE7=Taking Care of Business
TTITLE8=Sweet Lover
TTITLE9=Such a Night
TTITLE10=Feels Like Home
TTITLE11=You, Me and the Keys
TTITLE12=Mama Don't Allow/When the Saints Go Marching in
TTITLE13=Sweet Louisiana
EXTD=
EXTT0=
EXTT1=
EXTT2=
EXTT3=
EXTT4=
EXTT5=
EXTT6=
EXTT7=
EXTT8=
EXTT9=
EXTT10=
EXTT11=
EXTT12=
EXTT13=
PLAYORDER=
